<svg xmlns="http://www.w3.org/2000/svg" width="720" height="180" viewBox="0 0 720 180" role="img" aria-labelledby="logoTitle logoDesc">
  <title id="logoTitle">Infotech International logo</title>
  <desc id="logoDesc">Original premium logo with a connected globe mark and wordmark.</desc>
  <defs><linearGradient id="brandGradient" x1="0" y1="0" x2="1" y2="1"><stop offset="0" stop-color="#2563eb"/><stop offset="0.52" stop-color="#14b8a6"/><stop offset="1" stop-color="#f59e0b"/></linearGradient><filter id="shadow" x="-20%" y="-20%" width="140%" height="140%"><feDropShadow dx="0" dy="14" stdDeviation="16" flood-color="#0f172a" flood-opacity="0.22"/></filter></defs>
  <rect x="18" y="18" width="144" height="144" rx="38" fill="#0f172a" filter="url(#shadow)"/>
  <path d="M55 91c0-38 31-69 69-69h1c-17 10-29 37-29 69s12 59 29 69h-1c-38 0-69-31-69-69Z" fill="url(#brandGradient)"/>
  <path d="M93 42c24 5 43 25 48 49c-5 24-24 44-48 49c13-17 21-32 21-49s-8-32-21-49Z" fill="#ffffff" opacity="0.94"/>
  <circle cx="124" cy="91" r="10" fill="#f59e0b"/>
  <path d="M62 91h76M90 38v106" fill="none" stroke="#ffffff" stroke-width="8" stroke-linecap="round" opacity="0.42"/>
  <text x="194" y="78" font-family="Inter, Arial, Helvetica, sans-serif" font-size="44" font-weight="800" fill="#0f172a">Infotech</text>
  <text x="194" y="122" font-family="Inter, Arial, Helvetica, sans-serif" font-size="34" font-weight="700" fill="#2563eb">International</text>
  <text x="195" y="153" font-family="Inter, Arial, Helvetica, sans-serif" font-size="18" font-weight="600" fill="#64748b">Technology Beyond Boundaries</text>
</svg>
